<svg data-v-423bf9ae="" xmlns="http://www.w3.org/2000/svg" viewBox="0 0 409 90" class="iconLeftSlogan"><!----><!----><!----><g data-v-423bf9ae="" id="dfb945b4-f280-4605-9541-32712fe94785" fill="white" transform="matrix(3.5735558990070766,0,0,3.5735558990070766,98.17555261045456,-19.726028017521735)"><path d="M8.87 8.00L8.87 8.00L8.87 8.00Q9.04 7.88 9.02 7.76L9.02 7.76L9.02 7.76Q9.01 7.64 8.93 7.55L8.93 7.55L8.93 7.55Q8.83 7.45 8.65 7.36L8.65 7.36L8.65 7.36Q8.33 7.21 7.81 7.14L7.81 7.14L7.81 7.14Q7.29 7.07 6.71 7.07L6.71 7.07L6.71 7.07Q5.88 7.07 5.14 7.22L5.14 7.22L5.14 7.22Q4.41 7.37 3.84 7.77L3.84 7.77L3.84 7.77Q3.27 8.17 2.90 8.87L2.90 8.87L2.90 8.87Q2.53 9.57 2.43 10.66L2.43 10.66L2.43 10.66Q2.86 10.68 3.27 10.68L3.27 10.68L3.27 10.68Q3.68 10.68 4.09 10.68L4.09 10.68L4.09 10.68Q4.57 10.68 5.17 10.65L5.17 10.65L5.17 10.65Q5.77 10.63 6.40 10.60L6.40 10.60L6.40 10.60Q7.02 10.57 7.62 10.53L7.62 10.53L7.62 10.53Q8.22 10.50 8.71 10.48L8.71 10.48L8.71 10.48Q9.19 10.45 9.52 10.45L9.52 10.45L9.52 10.45Q9.84 10.45 9.91 10.48L9.91 10.48L9.91 10.48Q9.99 10.52 9.94 10.61L9.94 10.61L9.94 10.61Q9.89 10.71 9.74 10.82L9.74 10.82L9.74 10.82Q9.60 10.94 9.38 11.08L9.38 11.08L9.38 11.08Q9.17 11.22 8.93 11.34L8.93 11.34L8.93 11.34Q8.69 11.47 8.45 11.58L8.45 11.58L8.45 11.58Q8.20 11.68 8.00 11.74L8.00 11.74L8.00 11.74Q8.16 11.48 8.06 11.36L8.06 11.36L8.06 11.36Q7.96 11.25 7.52 11.25L7.52 11.25L7.52 11.25Q7.32 11.25 7.16 11.26L7.16 11.26L7.16 11.26Q6.99 11.27 6.78 11.28L6.78 11.28L6.78 11.28Q6.57 11.30 6.25 11.32L6.25 11.32L6.25 11.32Q5.94 11.35 5.44 11.39L5.44 11.39L5.44 11.39Q4.94 11.42 4.20 11.47L4.20 11.47L4.20 11.47Q3.47 11.53 2.41 11.59L2.41 11.59L2.41 11.59Q2.44 12.69 2.79 13.47L2.79 13.47L2.79 13.47Q3.14 14.24 3.75 14.74L3.75 14.74L3.75 14.74Q4.36 15.24 5.21 15.50L5.21 15.50L5.21 15.50Q6.05 15.76 7.07 15.85L7.07 15.85L7.07 15.85Q7.66 15.87 8.23 15.79L8.23 15.79L8.23 15.79Q8.48 15.76 8.75 15.70L8.75 15.70L8.75 15.70Q9.02 15.63 9.29 15.53L9.29 15.53L9.29 15.53Q9.56 15.44 9.82 15.29L9.82 15.29L9.82 15.29Q10.08 15.15 10.30 14.95L10.30 14.95L10.30 14.95Q9.80 15.38 9.25 15.73L9.25 15.73L9.25 15.73Q8.70 16.08 8.11 16.34L8.11 16.34L8.11 16.34Q7.53 16.60 6.92 16.74L6.92 16.74L6.92 16.74Q6.32 16.88 5.73 16.88L5.73 16.88L5.73 16.88Q5.21 16.88 4.63 16.79L4.63 16.79L4.63 16.79Q4.05 16.71 3.49 16.51L3.49 16.51L3.49 16.51Q2.93 16.30 2.42 15.97L2.42 15.97L2.42 15.97Q1.91 15.64 1.53 15.15L1.53 15.15L1.53 15.15Q1.16 14.65 0.96 13.98L0.96 13.98L0.96 13.98Q0.75 13.30 0.80 12.43L0.80 12.43L0.80 12.43Q0.85 11.41 1.19 10.55L1.19 10.55L1.19 10.55Q1.52 9.69 2.07 8.99L2.07 8.99L2.07 8.99Q2.62 8.30 3.34 7.77L3.34 7.77L3.34 7.77Q4.05 7.24 4.87 6.88L4.87 6.88L4.87 6.88Q5.69 6.53 6.57 6.35L6.57 6.35L6.57 6.35Q7.45 6.17 8.32 6.17L8.32 6.17L8.32 6.17Q8.70 6.17 9.02 6.20L9.02 6.20L9.02 6.20Q9.34 6.23 9.60 6.28L9.60 6.28L9.60 6.28Q9.86 6.33 10.04 6.39L10.04 6.39L10.04 6.39Q10.23 6.45 10.33 6.49L10.33 6.49L10.33 6.49Q10.64 6.63 10.64 6.82L10.64 6.82L10.64 6.82Q10.64 6.92 10.52 7.05L10.52 7.05L10.52 7.05Q10.41 7.17 10.24 7.29L10.24 7.29L10.24 7.29Q10.06 7.42 9.85 7.53L9.85 7.53L9.85 7.53Q9.65 7.64 9.45 7.74L9.45 7.74L9.45 7.74Q9.26 7.83 9.10 7.90L9.10 7.90L9.10 7.90Q8.94 7.97 8.87 8.00ZM21.38 15.49L21.38 15.49L21.38 15.49Q21.09 15.78 20.76 16.01L20.76 16.01L20.76 16.01Q20.43 16.25 20.09 16.42L20.09 16.42L20.09 16.42Q19.76 16.59 19.44 16.69L19.44 16.69L19.44 16.69Q19.13 16.80 18.87 16.81L18.87 16.81L18.87 16.81Q18.72 16.82 18.50 16.81L18.50 16.81L18.50 16.81Q18.27 16.79 18.06 16.69L18.06 16.69L18.06 16.69Q17.86 16.58 17.71 16.37L17.71 16.37L17.71 16.37Q17.55 16.15 17.55 15.74L17.55 15.74L17.55 14.93L17.55 14.93Q17.18 15.30 16.76 15.64L16.76 15.64L16.76 15.64Q16.34 15.98 15.90 16.24L15.90 16.24L15.90 16.24Q15.46 16.50 15.01 16.66L15.01 16.66L15.01 16.66Q14.56 16.81 14.12 16.81L14.12 16.81L14.12 16.81Q13.56 16.81 13.14 16.56L13.14 16.56L13.14 16.56Q12.71 16.31 12.43 15.91L12.43 15.91L12.43 15.91Q12.14 15.52 12.00 15.03L12.00 15.03L12.00 15.03Q11.85 14.53 11.85 14.05L11.85 14.05L11.85 14.05Q11.85 13.69 11.91 13.33L11.91 13.33L11.91 13.33Q11.96 12.98 12.05 12.67L12.05 12.67L12.05 12.67Q12.13 12.35 12.25 12.10L12.25 12.10L12.25 12.10Q12.36 11.85 12.48 11.68L12.48 11.68L12.48 11.68Q12.71 11.38 13.06 11.09L13.06 11.09L13.06 11.09Q13.41 10.80 13.82 10.55L13.82 10.55L13.82 10.55Q14.23 10.29 14.70 10.09L14.70 10.09L14.70 10.09Q15.16 9.88 15.62 9.73L15.62 9.73L15.62 9.73Q16.08 9.58 16.52 9.50L16.52 9.50L16.52 9.50Q16.96 9.42 17.33 9.42L17.33 9.42L17.33 9.42Q17.71 9.42 18.23 9.46L18.23 9.46L18.23 9.46Q18.75 9.50 19.41 9.61L19.41 9.61L19.41 9.61Q19.39 10.40 19.37 11.00L19.37 11.00L19.37 11.00Q19.35 11.60 19.33 12.08L19.33 12.08L19.33 12.08Q19.32 12.55 19.31 12.94L19.31 12.94L19.31 12.94Q19.30 13.33 19.30 13.70L19.30 13.70L19.30 13.70Q19.30 14.08 19.29 14.44L19.29 14.44L19.29 14.44Q19.28 14.80 19.35 15.09L19.35 15.09L19.35 15.09Q19.41 15.37 19.62 15.55L19.62 15.55L19.62 15.55Q19.82 15.73 20.24 15.73L20.24 15.73L20.24 15.73Q20.49 15.73 20.78 15.66L20.78 15.66L20.78 15.66Q21.07 15.60 21.38 15.49ZM17.57 10.60L17.57 10.60L17.57 10.60Q17.16 10.49 16.69 10.44L16.69 10.44L16.69 10.44Q16.23 10.40 15.80 10.40L15.80 10.40L15.80 10.40Q15.57 10.40 15.36 10.41L15.36 10.41L15.36 10.41Q15.16 10.42 14.98 10.45L14.98 10.45L14.98 10.45Q14.81 10.47 14.68 10.50L14.68 10.50L14.68 10.50Q14.55 10.53 14.49 10.57L14.49 10.57L14.49 10.57Q14.36 10.63 14.20 10.87L14.20 10.87L14.20 10.87Q14.03 11.10 13.88 11.45L13.88 11.45L13.88 11.45Q13.73 11.80 13.63 12.24L13.63 12.24L13.63 12.24Q13.52 12.67 13.52 13.14L13.52 13.14L13.52 13.14Q13.52 13.58 13.65 14.03L13.65 14.03L13.65 14.03Q13.78 14.48 14.03 14.83L14.03 14.83L14.03 14.83Q14.28 15.19 14.65 15.41L14.65 15.41L14.65 15.41Q15.01 15.63 15.48 15.63L15.48 15.63L15.48 15.63Q15.93 15.63 16.27 15.49L16.27 15.49L16.27 15.49Q16.61 15.35 16.86 15.10L16.86 15.10L16.86 15.10Q17.12 14.85 17.28 14.51L17.28 14.51L17.28 14.51Q17.45 14.18 17.55 13.79L17.55 13.79L17.55 13.79Q17.55 13.50 17.55 13.18L17.55 13.18L17.55 13.18Q17.55 12.85 17.55 12.46L17.55 12.46L17.55 12.46Q17.55 12.07 17.56 11.61L17.56 11.61L17.56 11.61Q17.56 11.15 17.57 10.60ZM28.03 13.79L28.03 13.79L28.03 13.79Q28.03 14.26 27.78 14.67L27.78 14.67L27.78 14.67Q27.53 15.07 27.13 15.42L27.13 15.42L27.13 15.42Q26.72 15.76 26.21 16.02L26.21 16.02L26.21 16.02Q25.70 16.28 25.18 16.45L25.18 16.45L25.18 16.45Q24.65 16.63 24.16 16.71L24.16 16.71L24.16 16.71Q23.67 16.80 23.30 16.77L23.30 16.77L23.30 16.77Q22.98 16.75 22.62 16.67L22.62 16.67L22.62 16.67Q22.27 16.58 22.00 16.46L22.00 16.46L22.00 16.46Q21.73 16.34 21.60 16.19L21.60 16.19L21.60 16.19Q21.46 16.05 21.59 15.91L21.59 15.91L21.59 15.91Q21.71 15.78 21.85 15.65L21.85 15.65L21.85 15.65Q22.00 15.52 22.20 15.38L22.20 15.38L22.20 15.38Q22.39 15.24 22.67 15.09L22.67 15.09L22.67 15.09Q22.94 14.93 23.32 14.74L23.32 14.74L23.32 14.74Q23.20 14.93 23.26 15.07L23.26 15.07L23.26 15.07Q23.32 15.22 23.49 15.33L23.49 15.33L23.49 15.33Q23.66 15.44 23.90 15.52L23.90 15.52L23.90 15.52Q24.14 15.59 24.38 15.64L24.38 15.64L24.38 15.64Q24.62 15.69 24.81 15.71L24.81 15.71L24.81 15.71Q25.01 15.73 25.09 15.73L25.09 15.73L25.09 15.73Q25.33 15.73 25.58 15.71L25.58 15.71L25.58 15.71Q25.82 15.68 26.01 15.60L26.01 15.60L26.01 15.60Q26.20 15.52 26.32 15.36L26.32 15.36L26.32 15.36Q26.44 15.20 26.44 14.92L26.44 14.92L26.44 14.92Q26.44 14.57 26.25 14.33L26.25 14.33L26.25 14.33Q26.07 14.10 25.76 13.94L25.76 13.94L25.76 13.94Q25.46 13.77 25.08 13.68L25.08 13.68L25.08 13.68Q24.71 13.58 24.33 13.52L24.33 13.52L24.33 13.52Q23.96 13.45 23.63 13.41L23.63 13.41L23.63 13.41Q23.30 13.36 23.08 13.31L23.08 13.31L23.08 13.31Q22.74 13.22 22.51 13.07L22.51 13.07L22.51 13.07Q22.29 12.93 22.15 12.75L22.15 12.75L22.15 12.75Q22.00 12.56 21.94 12.36L21.94 12.36L21.94 12.36Q21.88 12.15 21.88 11.95L21.88 11.95L21.88 11.95Q21.88 11.49 22.13 11.10L22.13 11.10L22.13 11.10Q22.37 10.71 22.77 10.40L22.77 10.40L22.77 10.40Q23.17 10.08 23.67 9.84L23.67 9.84L23.67 9.84Q24.17 9.60 24.69 9.44L24.69 9.44L24.69 9.44Q25.20 9.28 25.69 9.19L25.69 9.19L25.69 9.19Q26.17 9.11 26.53 9.11L26.53 9.11L26.53 9.11Q26.94 9.11 27.26 9.16L27.26 9.16L27.26 9.16Q27.58 9.20 27.77 9.26L27.77 9.26L27.77 9.26Q27.97 9.32 28.02 9.42L28.02 9.42L28.02 9.42Q28.07 9.52 28.02 9.64L28.02 9.64L28.02 9.64Q27.97 9.76 27.82 9.91L27.82 9.91L27.82 9.91Q27.68 10.05 27.48 10.20L27.48 10.20L27.48 10.20Q27.32 10.32 27.15 10.43L27.15 10.43L27.15 10.43Q26.99 10.53 26.80 10.63L26.80 10.63L26.80 10.63Q26.61 10.73 26.40 10.80L26.40 10.80L26.40 10.80Q26.50 10.67 26.49 10.57L26.49 10.57L26.49 10.57Q26.47 10.47 26.36 10.38L26.36 10.38L26.36 10.38Q26.25 10.30 26.07 10.24L26.07 10.24L26.07 10.24Q25.88 10.19 25.66 10.15L25.66 10.15L25.66 10.15Q25.43 10.11 25.18 10.09L25.18 10.09L25.18 10.09Q24.93 10.08 24.69 10.08L24.69 10.08L24.69 10.08Q24.46 10.08 24.23 10.09L24.23 10.09L24.23 10.09Q23.99 10.11 23.81 10.18L23.81 10.18L23.81 10.18Q23.63 10.25 23.51 10.40L23.51 10.40L23.51 10.40Q23.39 10.55 23.39 10.81L23.39 10.81L23.39 10.81Q23.39 11.03 23.49 11.26L23.49 11.26L23.49 11.26Q23.58 11.48 23.77 11.69L23.77 11.69L23.77 11.69Q23.96 11.89 24.24 12.04L24.24 12.04L24.24 12.04Q24.52 12.20 24.89 12.27L24.89 12.27L24.89 12.27Q25.18 12.33 25.53 12.35L25.53 12.35L25.53 12.35Q25.87 12.38 26.22 12.42L26.22 12.42L26.22 12.42Q26.57 12.46 26.90 12.54L26.90 12.54L26.90 12.54Q27.22 12.61 27.47 12.76L27.47 12.76L27.47 12.76Q27.73 12.91 27.88 13.16L27.88 13.16L27.88 13.16Q28.03 13.41 28.03 13.79ZM36.63 10.10L36.63 10.10L36.63 10.10Q36.63 10.40 36.56 10.79L36.56 10.79L36.56 10.79Q36.48 11.18 36.27 11.66L36.27 11.66L36.27 11.66Q36.06 12.13 35.70 12.68L35.70 12.68L35.70 12.68Q35.33 13.23 34.76 13.86L34.76 13.86L34.76 13.86Q34.03 14.66 33.26 15.46L33.26 15.46L33.26 15.46Q32.48 16.27 31.78 17.01L31.78 17.01L31.78 17.01Q31.08 17.76 30.50 18.41L30.50 18.41L30.50 18.41Q29.93 19.07 29.59 19.56L29.59 19.56L29.59 19.56Q29.26 20.06 29.08 20.45L29.08 20.45L29.08 20.45Q28.90 20.83 28.82 21.11L28.82 21.11L28.82 21.11Q28.75 21.39 28.75 21.59L28.75 21.59L28.75 21.59Q28.75 21.79 28.78 21.92L28.78 21.92L28.78 21.92Q28.80 22.00 28.78 22.07L28.78 22.07L28.78 22.07Q28.77 22.14 28.72 22.20L28.72 22.20L28.72 22.20Q28.68 22.25 28.62 22.28L28.62 22.28L28.62 22.28Q28.56 22.31 28.50 22.31L28.50 22.31L28.50 22.31Q28.42 22.31 28.33 22.23L28.33 22.23L28.33 22.23Q28.25 22.16 28.21 21.98L28.21 21.98L28.21 21.98Q28.16 21.77 28.25 21.41L28.25 21.41L28.25 21.41Q28.35 21.05 28.55 20.63L28.55 20.63L28.55 20.63Q28.76 20.21 29.05 19.76L29.05 19.76L29.05 19.76Q29.35 19.31 29.71 18.91L29.71 18.91L29.71 18.91Q30.15 18.42 30.72 17.78L30.72 17.78L30.72 17.78Q31.29 17.14 31.89 16.43L31.89 16.43L31.89 16.43Q31.81 15.94 31.68 15.30L31.68 15.30L31.68 15.30Q31.55 14.66 31.37 14.00L31.37 14.00L31.37 14.00Q31.19 13.33 30.95 12.69L30.95 12.69L30.95 12.69Q30.71 12.04 30.43 11.54L30.43 11.54L30.43 11.54Q30.14 11.04 29.80 10.73L29.80 10.73L29.80 10.73Q29.47 10.42 29.09 10.42L29.09 10.42L29.09 10.42Q28.93 10.42 28.77 10.48L28.77 10.48L28.77 10.48Q28.60 10.54 28.43 10.64L28.43 10.64L28.43 10.64Q28.63 10.45 28.88 10.21L28.88 10.21L28.88 10.21Q29.13 9.97 29.42 9.76L29.42 9.76L29.42 9.76Q29.70 9.56 29.99 9.42L29.99 9.42L29.99 9.42Q30.29 9.28 30.58 9.28L30.58 9.28L30.58 9.28Q30.78 9.28 30.95 9.38L30.95 9.38L30.95 9.38Q31.12 9.48 31.27 9.71L31.27 9.71L31.27 9.71Q31.42 9.95 31.67 10.39L31.67 10.39L31.67 10.39Q31.93 10.84 32.23 11.48L32.23 11.48L32.23 11.48Q32.53 12.11 32.82 12.92L32.82 12.92L32.82 12.92Q33.11 13.73 33.32 14.68L33.32 14.68L33.32 14.68Q33.69 14.21 34.00 13.74L34.00 13.74L34.00 13.74Q34.32 13.28 34.55 12.87L34.55 12.87L34.55 12.87Q34.79 12.45 34.92 12.09L34.92 12.09L34.92 12.09Q35.05 11.73 35.05 11.45L35.05 11.45L35.05 11.45Q35.05 11.20 35.00 11.00L35.00 11.00L35.00 11.00Q34.95 10.79 34.86 10.66L34.86 10.66L34.86 10.66Q34.76 10.53 34.61 10.47L34.61 10.47L34.61 10.47Q34.46 10.42 34.27 10.45L34.27 10.45L34.27 10.45Q34.43 10.26 34.63 10.03L34.63 10.03L34.63 10.03Q34.84 9.80 35.08 9.59L35.08 9.59L35.08 9.59Q35.31 9.39 35.57 9.26L35.57 9.26L35.57 9.26Q35.83 9.13 36.09 9.13L36.09 9.13L36.09 9.13Q36.27 9.13 36.38 9.23L36.38 9.23L36.38 9.23Q36.49 9.33 36.54 9.48L36.54 9.48L36.54 9.48Q36.60 9.63 36.62 9.80L36.62 9.80L36.62 9.80Q36.63 9.97 36.63 10.10ZM56.44 15.46L56.44 15.46L56.44 15.46Q56.15 15.75 55.85 16.01L55.85 16.01L55.85 16.01Q55.54 16.27 55.24 16.46L55.24 16.46L55.24 16.46Q54.94 16.65 54.65 16.75L54.65 16.75L54.65 16.75Q54.35 16.85 54.08 16.81L54.08 16.81L54.08 16.81Q53.80 16.77 53.65 16.58L53.65 16.58L53.65 16.58Q53.50 16.39 53.42 16.10L53.42 16.10L53.42 16.10Q53.35 15.80 53.32 15.42L53.32 15.42L53.32 15.42Q53.29 15.03 53.27 14.59L53.27 14.59L53.27 14.59Q53.23 14.23 53.17 13.47L53.17 13.47L53.17 13.47Q53.14 13.15 53.10 12.70L53.10 12.70L53.10 12.70Q53.07 12.26 53.02 11.69L53.02 11.69L53.02 11.69Q52.98 11.11 52.92 10.39L52.92 10.39L52.92 10.39Q52.86 9.67 52.79 8.77L52.79 8.77L52.79 8.77Q52.44 9.21 52.05 9.70L52.05 9.70L52.05 9.70Q51.66 10.20 51.28 10.73L51.28 10.73L51.28 10.73Q50.90 11.27 50.55 11.83L50.55 11.83L50.55 11.83Q50.20 12.39 49.92 12.95L49.92 12.95L49.92 12.95Q49.64 13.51 49.46 14.06L49.46 14.06L49.46 14.06Q49.27 14.62 49.23 15.13L49.23 15.13L47.71 16.71L47.71 16.71Q47.72 16.47 47.69 16.24L47.69 16.24L47.69 16.24Q47.67 16.00 47.63 15.82L47.63 15.82L47.63 15.82Q47.58 15.60 47.51 15.41L47.51 15.41L47.51 15.41Q47.20 14.61 46.83 13.84L46.83 13.84L46.83 13.84Q46.46 13.06 46.07 12.30L46.07 12.30L46.07 12.30Q45.68 11.55 45.28 10.80L45.28 10.80L45.28 10.80Q44.88 10.06 44.50 9.30L44.50 9.30L44.50 9.30Q44.34 9.99 44.22 10.56L44.22 10.56L44.22 10.56Q44.10 11.13 44.00 11.55L44.00 11.55L44.00 11.55Q43.89 12.04 43.81 12.44L43.81 12.44L43.81 12.44Q43.25 15.03 43.46 15.30L43.46 15.30L43.46 15.30Q43.52 15.36 43.64 15.40L43.64 15.40L43.64 15.40Q43.76 15.45 43.94 15.45L43.94 15.45L43.94 15.45Q44.15 15.45 44.41 15.36L44.41 15.36L44.41 15.36Q44.67 15.28 44.96 15.06L44.96 15.06L44.96 15.06Q44.52 15.47 44.16 15.82L44.16 15.82L44.16 15.82Q43.80 16.17 43.48 16.41L43.48 16.41L43.48 16.41Q43.17 16.65 42.90 16.75L42.90 16.75L42.90 16.75Q42.63 16.85 42.38 16.77L42.38 16.77L42.38 16.77Q42.18 16.70 42.10 16.53L42.10 16.53L42.10 16.53Q42.02 16.36 42.02 16.08L42.02 16.08L42.02 16.08Q42.02 15.69 42.15 15.10L42.15 15.10L42.15 15.10Q42.29 14.52 42.44 13.75L42.44 13.75L42.44 13.75Q42.54 13.33 42.66 12.77L42.66 12.77L42.66 12.77Q42.79 12.20 42.92 11.58L42.92 11.58L42.92 11.58Q43.06 10.96 43.20 10.31L43.20 10.31L43.20 10.31Q43.33 9.67 43.46 9.08L43.46 9.08L43.46 9.08Q43.59 8.50 43.69 8.03L43.69 8.03L43.69 8.03Q43.78 7.55 43.85 7.25L43.85 7.25L43.85 7.25Q43.87 7.16 44.05 6.97L44.05 6.97L44.05 6.97Q44.13 6.89 44.24 6.78L44.24 6.78L44.24 6.78Q44.35 6.67 44.51 6.51L44.51 6.51L44.51 6.51Q44.67 6.36 44.89 6.17L44.89 6.17L44.89 6.17Q45.10 5.97 45.38 5.74L45.38 5.74L45.38 5.74Q45.33 5.99 45.37 6.28L45.37 6.28L45.37 6.28Q45.41 6.56 45.48 6.81L45.48 6.81L45.48 6.81Q45.55 7.10 45.68 7.38L45.68 7.38L45.68 7.38Q45.77 7.59 46.00 8.03L46.00 8.03L46.00 8.03Q46.22 8.47 46.51 9.03L46.51 9.03L46.51 9.03Q46.80 9.58 47.13 10.22L47.13 10.22L47.13 10.22Q47.47 10.85 47.78 11.46L47.78 11.46L47.78 11.46Q48.09 12.08 48.36 12.63L48.36 12.63L48.36 12.63Q48.62 13.19 48.78 13.58L48.78 13.58L48.78 13.58Q49.08 13.04 49.45 12.51L49.45 12.51L49.45 12.51Q49.81 11.98 50.20 11.46L50.20 11.46L50.20 11.46Q50.59 10.93 50.97 10.40L50.97 10.40L50.97 10.40Q51.36 9.87 51.70 9.32L51.70 9.32L51.70 9.32Q52.05 8.78 52.34 8.20L52.34 8.20L52.34 8.20Q52.62 7.63 52.81 7.02L52.81 7.02L52.81 7.02Q52.99 6.81 53.24 6.57L53.24 6.57L53.24 6.57Q53.44 6.36 53.74 6.10L53.74 6.10L53.74 6.10Q54.04 5.83 54.43 5.52L54.43 5.52L54.43 5.52Q54.35 5.74 54.33 6.01L54.33 6.01L54.33 6.01Q54.30 6.28 54.28 6.53L54.28 6.53L54.28 6.53Q54.27 6.82 54.28 7.11L54.28 7.11L54.28 7.11Q54.29 7.30 54.32 7.71L54.32 7.71L54.32 7.71Q54.35 8.12 54.39 8.66L54.39 8.66L54.39 8.66Q54.43 9.21 54.49 9.85L54.49 9.85L54.49 9.85Q54.55 10.49 54.61 11.15L54.61 11.15L54.61 11.15Q54.67 11.81 54.73 12.44L54.73 12.44L54.73 12.44Q54.79 13.07 54.84 13.59L54.84 13.59L54.84 13.59Q54.90 14.12 54.95 14.49L54.95 14.49L54.95 14.49Q55.00 14.87 55.03 15.02L55.03 15.02L55.03 15.02Q55.06 15.19 55.15 15.31L55.15 15.31L55.15 15.31Q55.23 15.43 55.34 15.50L55.34 15.50L55.34 15.50Q55.45 15.57 55.57 15.60L55.57 15.60L55.57 15.60Q55.70 15.63 55.83 15.63L55.83 15.63L55.83 15.63Q56.01 15.63 56.17 15.58L56.17 15.58L56.17 15.58Q56.33 15.53 56.44 15.46ZM61.17 11.66L66.18 10.02L66.18 10.02Q65.39 10.40 64.72 10.70L64.72 10.70L64.72 10.70Q64.05 11.00 63.53 11.20L63.53 11.20L63.53 11.20Q62.94 11.44 62.44 11.63L62.44 11.63L62.44 11.63Q62.13 11.76 61.76 11.89L61.76 11.89L61.76 11.89Q61.39 12.02 60.98 12.15L60.98 12.15L60.98 12.15Q60.58 12.28 60.16 12.40L60.16 12.40L60.16 12.40Q59.74 12.53 59.33 12.65L59.33 12.65L59.33 12.79L59.33 12.79Q59.33 13.49 59.55 14.05L59.55 14.05L59.55 14.05Q59.77 14.62 60.17 15.01L60.17 15.01L60.17 15.01Q60.57 15.40 61.12 15.61L61.12 15.61L61.12 15.61Q61.67 15.82 62.34 15.82L62.34 15.82L62.34 15.82Q62.69 15.82 63.04 15.76L63.04 15.76L63.04 15.76Q63.38 15.71 63.69 15.62L63.69 15.62L63.69 15.62Q64.00 15.52 64.28 15.39L64.28 15.39L64.28 15.39Q64.55 15.26 64.76 15.11L64.76 15.11L64.76 15.11Q64.24 15.58 63.69 15.89L63.69 15.89L63.69 15.89Q63.14 16.21 62.59 16.40L62.59 16.40L62.59 16.40Q62.04 16.60 61.51 16.69L61.51 16.69L61.51 16.69Q60.97 16.78 60.48 16.78L60.48 16.78L60.48 16.78Q59.98 16.80 59.50 16.63L59.50 16.63L59.50 16.63Q59.01 16.46 58.62 16.12L58.62 16.12L58.62 16.12Q58.22 15.78 57.95 15.27L57.95 15.27L57.95 15.27Q57.67 14.76 57.59 14.08L57.59 14.08L57.59 14.08Q57.56 13.84 57.56 13.62L57.56 13.62L57.56 13.62Q57.57 13.40 57.61 13.18L57.61 13.18L57.61 13.18Q57.37 13.27 57.17 13.34L57.17 13.34L57.17 13.34Q56.98 13.42 56.85 13.49L56.85 13.49L56.85 13.49Q57.05 13.36 57.25 13.24L57.25 13.24L57.25 13.24Q57.45 13.12 57.64 13.02L57.64 13.02L57.64 13.02Q57.76 12.48 58.04 12.00L58.04 12.00L58.04 12.00Q58.32 11.51 58.72 11.09L58.72 11.09L58.72 11.09Q59.12 10.68 59.62 10.34L59.62 10.34L59.62 10.34Q60.11 10.00 60.64 9.76L60.64 9.76L60.64 9.76Q61.17 9.52 61.71 9.39L61.71 9.39L61.71 9.39Q62.26 9.26 62.77 9.26L62.77 9.26L62.77 9.26Q63.12 9.26 63.35 9.37L63.35 9.37L63.35 9.37Q63.59 9.47 63.67 9.73L63.67 9.73L63.67 9.73Q63.71 10.00 63.47 10.32L63.47 10.32L63.47 10.32Q63.37 10.45 63.19 10.61L63.19 10.61L63.19 10.61Q63.02 10.76 62.74 10.93L62.74 10.93L62.74 10.93Q62.47 11.10 62.08 11.29L62.08 11.29L62.08 11.29Q61.69 11.47 61.17 11.66L61.17 11.66ZM60.76 11.68L60.76 11.68L60.76 11.68Q61.05 11.55 61.29 11.40L61.29 11.40L61.29 11.40Q61.52 11.25 61.66 11.09L61.66 11.09L61.66 11.09Q61.79 10.92 61.80 10.75L61.80 10.75L61.80 10.75Q61.80 10.57 61.65 10.37L61.65 10.37L61.65 10.37Q61.55 10.22 61.37 10.16L61.37 10.16L61.37 10.16Q61.19 10.10 61.00 10.10L61.00 10.10L61.00 10.10Q60.82 10.10 60.66 10.14L60.66 10.14L60.66 10.14Q60.49 10.18 60.37 10.24L60.37 10.24L60.37 10.24Q60.29 10.29 60.14 10.45L60.14 10.45L60.14 10.45Q60.00 10.61 59.85 10.87L59.85 10.87L59.85 10.87Q59.70 11.12 59.56 11.46L59.56 11.46L59.56 11.46Q59.43 11.80 59.37 12.20L59.37 12.20L59.37 12.20Q59.80 12.04 60.15 11.92L60.15 11.92L60.15 11.92Q60.50 11.80 60.76 11.68ZM68.19 15.78L68.19 15.78L66.55 16.96L66.55 16.96Q66.62 15.64 66.65 14.71L66.65 14.71L66.65 14.71Q66.68 13.78 66.70 13.18L66.70 13.18L66.70 13.18Q66.72 12.48 66.72 12.02L66.72 12.02L66.72 12.02Q66.75 11.19 66.49 10.72L66.49 10.72L66.49 10.72Q66.23 10.25 65.70 10.25L65.70 10.25L65.70 10.25Q65.53 10.25 65.34 10.31L65.34 10.31L65.34 10.31Q65.15 10.36 64.94 10.45L64.94 10.45L64.94 10.45Q65.21 10.26 65.50 10.06L65.50 10.06L65.50 10.06Q65.80 9.86 66.10 9.69L66.10 9.69L66.10 9.69Q66.41 9.53 66.72 9.42L66.72 9.42L66.72 9.42Q67.03 9.32 67.33 9.32L67.33 9.32L67.33 9.32Q67.62 9.32 67.86 9.43L67.86 9.43L67.86 9.43Q68.09 9.55 68.22 9.82L68.22 9.82L68.22 9.82Q68.33 10.06 68.37 10.34L68.37 10.34L68.37 10.34Q68.41 10.63 68.43 10.97L68.43 10.97L68.43 10.97Q68.78 10.60 69.21 10.28L69.21 10.28L69.21 10.28Q69.64 9.96 70.12 9.73L70.12 9.73L70.12 9.73Q70.59 9.51 71.07 9.40L71.07 9.40L71.07 9.40Q71.54 9.29 71.97 9.34L71.97 9.34L71.97 9.34Q72.28 9.39 72.61 9.52L72.61 9.52L72.61 9.52Q72.94 9.65 73.22 9.91L73.22 9.91L73.22 9.91Q73.49 10.18 73.66 10.61L73.66 10.61L73.66 10.61Q73.83 11.05 73.82 11.70L73.82 11.70L73.82 11.70Q73.80 12.46 73.75 13.10L73.75 13.10L73.75 13.10Q73.71 13.74 73.71 14.23L73.71 14.23L73.71 14.23Q73.71 14.53 73.75 14.79L73.75 14.79L73.75 14.79Q73.80 15.05 73.92 15.25L73.92 15.25L73.92 15.25Q74.04 15.44 74.25 15.56L74.25 15.56L74.25 15.56Q74.45 15.67 74.76 15.67L74.76 15.67L74.76 15.67Q75.03 15.67 75.34 15.57L75.34 15.57L75.34 15.57Q75.64 15.46 75.95 15.24L75.95 15.24L75.95 15.24Q75.45 15.69 75.03 15.99L75.03 15.99L75.03 15.99Q74.62 16.29 74.27 16.47L74.27 16.47L74.27 16.47Q73.91 16.66 73.60 16.74L73.60 16.74L73.60 16.74Q73.29 16.82 73.01 16.81L73.01 16.81L73.01 16.81Q72.72 16.80 72.52 16.70L72.52 16.70L72.52 16.70Q72.31 16.59 72.19 16.37L72.19 16.37L72.19 16.37Q72.06 16.15 72.02 15.79L72.02 15.79L72.02 15.79Q71.97 15.44 71.98 14.93L71.98 14.93L71.98 14.93Q72.00 14.48 72.04 13.94L72.04 13.94L72.04 13.94Q72.07 13.39 72.07 12.86L72.07 12.86L72.07 12.86Q72.07 12.25 71.99 11.81L71.99 11.81L71.99 11.81Q71.91 11.38 71.69 11.09L71.69 11.09L71.69 11.09Q71.48 10.81 71.10 10.67L71.10 10.67L71.10 10.67Q70.72 10.53 70.12 10.53L70.12 10.53L70.12 10.53Q69.69 10.53 69.39 10.70L69.39 10.70L69.39 10.70Q69.09 10.87 68.89 11.16L68.89 11.16L68.89 11.16Q68.69 11.44 68.58 11.82L68.58 11.82L68.58 11.82Q68.47 12.20 68.41 12.63L68.41 12.63L68.41 12.63Q68.35 13.06 68.33 13.50L68.33 13.50L68.33 13.50Q68.31 13.95 68.30 14.37L68.30 14.37L68.30 14.37Q68.29 14.79 68.27 15.15L68.27 15.15L68.27 15.15Q68.25 15.52 68.19 15.78ZM86.90 15.29L86.90 15.29L86.90 15.29Q86.39 15.66 86.00 15.93L86.00 15.93L86.00 15.93Q85.62 16.21 85.29 16.38L85.29 16.38L85.29 16.38Q84.96 16.56 84.66 16.63L84.66 16.63L84.66 16.63Q84.36 16.70 84.01 16.68L84.01 16.68L84.01 16.68Q83.75 16.67 83.56 16.57L83.56 16.57L83.56 16.57Q83.37 16.47 83.25 16.28L83.25 16.28L83.25 16.28Q83.13 16.09 83.06 15.81L83.06 15.81L83.06 15.81Q83.00 15.54 82.97 15.16L82.97 15.16L82.97 15.16Q82.58 15.49 82.17 15.78L82.17 15.78L82.17 15.78Q81.75 16.06 81.30 16.27L81.30 16.27L81.30 16.27Q80.86 16.48 80.38 16.60L80.38 16.60L80.38 16.60Q79.91 16.71 79.41 16.71L79.41 16.71L79.41 16.71Q78.72 16.71 78.29 16.51L78.29 16.51L78.29 16.51Q77.85 16.30 77.59 15.93L77.59 15.93L77.59 15.93Q77.33 15.57 77.24 15.05L77.24 15.05L77.24 15.05Q77.14 14.54 77.14 13.92L77.14 13.92L77.14 13.92Q77.14 13.52 77.15 13.13L77.15 13.13L77.15 13.13Q77.16 12.74 77.16 12.37L77.16 12.37L77.16 12.37Q77.16 11.94 77.13 11.57L77.13 11.57L77.13 11.57Q77.10 11.19 77.01 10.91L77.01 10.91L77.01 10.91Q76.92 10.64 76.74 10.48L76.74 10.48L76.74 10.48Q76.57 10.32 76.28 10.32L76.28 10.32L76.28 10.32Q76.04 10.32 75.71 10.44L75.71 10.44L75.71 10.44Q75.96 10.24 76.24 10.04L76.24 10.04L76.24 10.04Q76.51 9.83 76.81 9.67L76.81 9.67L76.81 9.67Q77.10 9.50 77.40 9.40L77.40 9.40L77.40 9.40Q77.70 9.29 78.02 9.29L78.02 9.29L78.02 9.29Q78.31 9.29 78.47 9.43L78.47 9.43L78.47 9.43Q78.64 9.56 78.73 9.78L78.73 9.78L78.73 9.78Q78.82 9.99 78.85 10.26L78.85 10.26L78.85 10.26Q78.87 10.52 78.87 10.77L78.87 10.77L78.87 10.77Q78.87 11.45 78.86 12.07L78.86 12.07L78.86 12.07Q78.85 12.68 78.85 13.30L78.85 13.30L78.85 13.30Q78.85 13.83 78.97 14.24L78.97 14.24L78.97 14.24Q79.08 14.66 79.33 14.94L79.33 14.94L79.33 14.94Q79.58 15.23 79.98 15.37L79.98 15.37L79.98 15.37Q80.38 15.52 80.96 15.50L80.96 15.50L80.96 15.50Q81.39 15.50 81.71 15.44L81.71 15.44L81.71 15.44Q82.04 15.37 82.28 15.22L82.28 15.22L82.28 15.22Q82.52 15.06 82.69 14.80L82.69 14.80L82.69 14.80Q82.86 14.53 82.97 14.12L82.97 14.12L82.97 14.12Q83.00 13.21 83.03 12.39L83.03 12.39L83.03 12.39Q83.06 11.57 83.06 10.76L83.06 10.76L83.06 10.76Q83.06 10.60 82.98 10.48L82.98 10.48L82.98 10.48Q82.92 10.38 82.78 10.33L82.78 10.33L82.78 10.33Q82.64 10.27 82.39 10.34L82.39 10.34L82.39 10.34Q82.58 10.19 82.83 10.01L82.83 10.01L82.83 10.01Q83.08 9.82 83.33 9.66L83.33 9.66L83.33 9.66Q83.59 9.50 83.84 9.39L83.84 9.39L83.84 9.39Q84.09 9.28 84.31 9.28L84.31 9.28L84.31 9.28Q84.54 9.28 84.70 9.41L84.70 9.41L84.70 9.41Q84.87 9.55 84.87 9.81L84.87 9.81L84.87 9.81Q84.87 9.95 84.86 10.32L84.86 10.32L84.86 10.32Q84.86 10.68 84.85 11.17L84.85 11.17L84.85 11.17Q84.84 11.66 84.83 12.20L84.83 12.20L84.83 12.20Q84.83 12.75 84.82 13.25L84.82 13.25L84.82 13.25Q84.81 13.75 84.81 14.16L84.81 14.16L84.81 14.16Q84.81 14.57 84.81 14.78L84.81 14.78L84.81 14.78Q84.83 15.17 85.12 15.35L85.12 15.35L85.12 15.35Q85.41 15.54 85.83 15.54L85.83 15.54L85.83 15.54Q86.08 15.54 86.36 15.47L86.36 15.47L86.36 15.47Q86.64 15.41 86.90 15.29Z"></path></g><!----><g data-v-423bf9ae="" id="6c82424d-6f1b-4a0f-92c3-0a8e9abd63f8" transform="matrix(1.4999931335763539,0,0,1.4999931335763539,-6.999986267152707,-2.999986267152707)" stroke="none" fill="white"><path d="M41 7a5.006 5.006 0 0 0-5-5H10a5.006 5.006 0 0 0-5 5v50a5.006 5.006 0 0 0 5 5h26a5.006 5.006 0 0 0 5-5v-9.038q.724-.546 1.4-1.153L43.586 48l-2 2 10.879 10.879a3.828 3.828 0 0 0 5.414-5.414L47 44.586l-2 2-1.191-1.186A19.9 19.9 0 0 0 41 16.038zm15.465 49.879a1.829 1.829 0 0 1-2.586 2.586L47.414 53 50 50.414zM48.586 49L46 51.586 44.414 50 47 47.414zM7 57v-1h13.78a2.954 2.954 0 0 0 0 4H10a3 3 0 0 1-3-3zm16 2a1 1 0 1 1 1-1 1 1 0 0 1-1 1zm16-2a3 3 0 0 1-3 3H25.22a2.954 2.954 0 0 0 0-4H39zm8-25a18 18 0 1 1-18-18 18.021 18.021 0 0 1 18 18zM29 12a20 20 0 1 0 10 37.294V54H7V10h32v4.706A19.853 19.853 0 0 0 29 12zM7 8V7a3 3 0 0 1 3-3h26a3 3 0 0 1 3 3v1z"></path><path d="M23.71 5.29a1.047 1.047 0 0 0-1.42 0 1.032 1.032 0 0 0-.21.33A1 1 0 0 0 22 6a.838.838 0 0 0 .08.38 1.169 1.169 0 0 0 .21.33 1.032 1.032 0 0 0 .33.21.99.99 0 0 0 1.09-.21 1.169 1.169 0 0 0 .21-.33.942.942 0 0 0 0-.76 1.155 1.155 0 0 0-.21-.33zM18 31h10V21H18zm2-8h6v6h-6zM18 43h10V33H18zm2-8h6v6h-6zM40 21H30v10h10zm-2 8h-6v-6h6z"></path><path d="M22 25h2v2h-2zM34 25h2v2h-2zM22 37h2v2h-2zM36 35h-2v-2h-4v2h2v2h4v-2zM32 43h2v-4h-2v-2h-2v4h2v2zM36 41h2v2h-2zM38 33h2v2h-2zM38 39v2h2v-4h-4v2h2z"></path></g><!----><g data-v-423bf9ae="" id="043c322e-af7c-463e-b275-ea13c8fba1fa" fill="white" transform="matrix(0.7699435304505242,0,0,0.7699435304505242,100.70746444057562,57.89035635426158)"><path d="M0.77 3.64L0.38 3.64L0.40 3.08L3.50 3.08L3.50 3.08Q5.24 3.08 6.02 3.75L6.02 3.75L6.02 3.75Q6.79 4.42 6.79 5.37L6.79 5.37L6.79 5.37Q6.79 6.08 6.25 6.60L6.25 6.60L6.25 6.60Q5.69 7.14 5.00 7.35L5.00 7.35L5.00 7.35Q6.08 7.57 6.61 8.34L6.61 8.34L6.61 8.34Q7.13 9.08 7.12 10.01L7.12 10.01L7.12 10.01Q7.12 11.01 6.49 11.59L6.49 11.59L6.49 11.59Q5.89 12.13 4.94 12.28L4.94 12.28L4.94 12.28Q4.02 12.41 2.47 12.41L2.47 12.41L0.49 12.41L0.49 11.87L0.91 11.87L0.91 11.87Q1.27 11.87 1.38 11.80L1.38 11.80L1.38 11.80Q1.50 11.73 1.50 11.46L1.50 11.46L1.50 4.14L1.50 4.14Q1.50 3.81 1.35 3.72L1.35 3.72L1.35 3.72Q1.21 3.64 0.77 3.64L0.77 3.64ZM2.60 7.59L2.60 7.59L2.63 11.35L2.63 11.35Q2.63 11.63 2.80 11.71L2.80 11.71L2.80 11.71Q2.97 11.80 3.54 11.80L3.54 11.80L3.54 11.80Q5.80 11.80 5.80 9.91L5.80 9.91L5.80 9.91Q5.80 9.22 5.48 8.73L5.48 8.73L5.48 8.73Q5.16 8.24 4.63 8.02L4.63 8.02L4.63 8.02Q4.05 7.75 3.61 7.68L3.61 7.68L3.61 7.68Q3.13 7.59 2.60 7.59ZM2.63 4.01L2.63 7.19L4.01 7.19L4.01 7.19Q4.66 7.19 5.08 6.66L5.08 6.66L5.08 6.66Q5.48 6.15 5.49 5.54L5.49 5.54L5.49 5.54Q5.49 4.85 4.90 4.27L4.90 4.27L4.90 4.27Q4.33 3.69 3.05 3.69L3.05 3.69L3.05 3.69Q2.63 3.69 2.63 4.01L2.63 4.01ZM15.31 3.64L15.31 3.64L15.33 3.08L18.46 3.08L18.46 3.64L18.18 3.64L18.18 3.64Q17.73 3.64 17.62 3.66L17.62 3.66L17.62 3.66Q17.45 3.71 17.45 3.82L17.45 3.82L17.45 3.82Q17.45 3.89 17.71 4.31L17.71 4.31L19.71 7.46L22.16 3.99L22.16 3.99Q22.24 3.83 22.24 3.82L22.24 3.82L22.24 3.82Q22.24 3.64 21.33 3.64L21.33 3.64L21.11 3.64L21.10 3.08L23.64 3.08L23.64 3.64L23.57 3.64L23.57 3.64Q23.22 3.64 23.08 3.72L23.08 3.72L23.08 3.72Q22.92 3.80 22.63 4.22L22.63 4.22L19.91 8.17L19.91 11.22L19.91 11.22Q19.91 11.66 20.02 11.77L20.02 11.77L20.02 11.77Q20.11 11.87 20.73 11.87L20.73 11.87L21.36 11.87L21.34 12.41L17.41 12.41L17.42 11.87L17.99 11.87L17.99 11.87Q18.52 11.87 18.65 11.79L18.65 11.79L18.65 11.79Q18.77 11.70 18.77 11.25L18.77 11.25L18.77 8.06L16.47 4.49L16.47 4.49Q16.06 3.84 15.93 3.73L15.93 3.73L15.93 3.73Q15.82 3.64 15.31 3.64ZM40.92 10.04L40.92 10.04L41.41 9.98L41.60 10.85L41.60 10.85Q41.71 11.33 41.77 11.41L41.77 11.41L41.77 11.41Q41.84 11.49 42.25 11.64L42.25 11.64L42.25 11.64Q43.09 11.95 43.99 11.95L43.99 11.95L43.99 11.95Q44.78 11.95 45.32 11.49L45.32 11.49L45.32 11.49Q45.85 11.04 45.85 10.26L45.85 10.26L45.85 10.26Q45.85 9.65 45.39 9.21L45.39 9.21L45.39 9.21Q44.91 8.76 44.06 8.30L44.06 8.30L43.48 7.98L43.48 7.98Q42.74 7.55 42.51 7.36L42.51 7.36L42.51 7.36Q42.14 7.08 41.83 6.59L41.83 6.59L41.83 6.59Q41.52 6.10 41.52 5.46L41.52 5.46L41.52 5.46Q41.52 4.39 42.36 3.68L42.36 3.68L42.36 3.68Q43.20 2.97 44.31 2.97L44.31 2.97L44.31 2.97Q44.59 2.97 44.94 3.04L44.94 3.04L44.94 3.04Q45.14 3.08 45.47 3.17L45.47 3.17L45.71 3.25L45.71 3.25Q45.81 3.25 45.85 3.16L45.85 3.16L45.85 3.16Q45.90 3.05 45.90 2.98L45.90 2.98L45.92 2.88L46.40 2.85L46.61 5.41L46.10 5.43L45.98 4.18L45.98 4.18Q45.23 3.62 44.07 3.62L44.07 3.62L44.07 3.62Q43.43 3.62 42.92 4.05L42.92 4.05L42.92 4.05Q42.44 4.47 42.44 5.12L42.44 5.12L42.44 5.12Q42.44 5.72 42.90 6.17L42.90 6.17L42.90 6.17Q43.33 6.60 44.19 7.08L44.19 7.08L44.97 7.50L44.97 7.50Q45.92 8.03 46.45 8.59L46.45 8.59L46.45 8.59Q46.98 9.15 46.98 9.92L46.98 9.92L46.98 9.92Q46.98 10.99 46.13 11.76L46.13 11.76L46.13 11.76Q45.26 12.54 43.80 12.54L43.80 12.54L43.80 12.54Q43.24 12.54 42.74 12.41L42.74 12.41L42.74 12.41Q42.24 12.29 42.18 12.29L42.18 12.29L42.18 12.29Q41.93 12.29 41.93 12.58L41.93 12.58L41.95 12.76L41.47 12.80L41.47 12.80Q41.41 12.41 40.92 10.04ZM55.75 3.64L55.17 3.64L55.18 3.08L58.69 3.08L58.69 3.64L58.46 3.64L58.46 3.64Q57.91 3.64 57.74 3.73L57.74 3.73L57.74 3.73Q57.61 3.81 57.61 4.28L57.61 4.28L57.61 11.22L57.61 11.22Q57.61 11.68 57.72 11.77L57.72 11.77L57.72 11.77Q57.83 11.87 58.36 11.87L58.36 11.87L58.91 11.87L58.92 12.41L55.34 12.41L55.32 11.87L55.69 11.87L55.69 11.87Q56.25 11.87 56.36 11.77L56.36 11.77L56.36 11.77Q56.47 11.67 56.47 11.25L56.47 11.25L56.47 4.14L56.47 4.14Q56.47 3.77 56.37 3.71L56.37 3.71L56.37 3.71Q56.26 3.64 55.75 3.64L55.75 3.64ZM67.15 3.64L66.66 3.64L66.67 3.08L70.26 3.08L70.26 3.64L69.62 3.64L69.62 3.64Q69.25 3.64 69.14 3.72L69.14 3.72L69.14 3.72Q69.02 3.80 69.02 4.16L69.02 4.16L69.02 11.22L69.02 11.22Q69.02 11.57 69.11 11.67L69.11 11.67L69.11 11.67Q69.19 11.77 69.49 11.77L69.49 11.77L69.49 11.77Q72.36 11.74 73.01 11.63L73.01 11.63L73.01 11.63Q73.23 11.61 73.31 11.39L73.31 11.39L73.31 11.39Q73.39 11.17 73.59 10.05L73.59 10.05L74.08 10.08L73.62 12.41L66.86 12.41L66.84 11.87L67.23 11.87L67.23 11.87Q67.74 11.87 67.81 11.80L67.81 11.80L67.81 11.80Q67.89 11.72 67.89 11.33L67.89 11.33L67.89 4.09L67.89 4.09Q67.89 3.80 67.74 3.72L67.74 3.72L67.74 3.72Q67.59 3.64 67.15 3.64L67.15 3.64ZM82.40 3.64L81.81 3.64L81.83 3.08L85.34 3.08L85.34 3.64L85.11 3.64L85.11 3.64Q84.56 3.64 84.39 3.73L84.39 3.73L84.39 3.73Q84.25 3.81 84.25 4.28L84.25 4.28L84.25 11.22L84.25 11.22Q84.25 11.68 84.36 11.77L84.36 11.77L84.36 11.77Q84.47 11.87 85.00 11.87L85.00 11.87L85.55 11.87L85.57 12.41L81.98 12.41L81.97 11.87L82.33 11.87L82.33 11.87Q82.89 11.87 83.01 11.77L83.01 11.77L83.01 11.77Q83.12 11.67 83.12 11.25L83.12 11.25L83.12 4.14L83.12 4.14Q83.12 3.77 83.02 3.71L83.02 3.71L83.02 3.71Q82.91 3.64 82.40 3.64L82.40 3.64ZM93.69 8.02L93.69 8.02L93.69 8.02Q93.69 6.86 94.16 5.83L94.16 5.83L94.16 5.83Q94.62 4.85 95.38 4.27L95.38 4.27L95.38 4.27Q96.12 3.69 97.02 3.37L97.02 3.37L97.02 3.37Q97.91 3.05 98.75 3.05L98.75 3.05L98.75 3.05Q99.62 3.05 100.29 3.16L100.29 3.16L100.29 3.16Q100.92 3.26 101.21 3.37L101.21 3.37L101.21 3.37Q101.52 3.48 101.55 3.48L101.55 3.48L101.55 3.48Q101.73 3.48 101.75 3.41L101.75 3.41L101.75 3.41Q101.77 3.33 101.77 3.09L101.77 3.09L101.77 2.97L102.31 2.97L102.31 2.97Q102.35 4.30 102.48 5.64L102.48 5.64L101.97 5.65L101.97 5.65Q101.94 5.40 101.93 5.26L101.93 5.26L101.93 5.26Q101.93 5.20 101.92 5.13L101.92 5.13L101.92 5.13Q101.92 5.07 101.91 5.02L101.91 5.02L101.91 5.02Q101.90 4.98 101.90 4.95L101.90 4.95L101.90 4.95Q101.88 4.84 101.88 4.74L101.88 4.74L101.88 4.74Q101.88 4.68 101.83 4.59L101.83 4.59L101.83 4.59Q101.83 4.57 101.80 4.55L101.80 4.55L101.80 4.55Q101.77 4.52 101.77 4.50L101.77 4.50L101.77 4.50Q101.75 4.44 101.68 4.41L101.68 4.41L101.68 4.41Q101.64 4.38 101.61 4.37L101.61 4.37L101.61 4.37Q101.58 4.36 101.55 4.35L101.55 4.35L101.55 4.35Q101.54 4.35 101.52 4.33L101.52 4.33L101.52 4.33Q101.49 4.31 101.45 4.29L101.45 4.29L101.45 4.29Q101.41 4.27 101.37 4.25L101.37 4.25L101.37 4.25Q101.14 4.16 101.12 4.14L101.12 4.14L101.12 4.14Q100.77 3.96 100.13 3.83L100.13 3.83L100.13 3.83Q99.46 3.71 98.79 3.71L98.79 3.71L98.79 3.71Q97.07 3.71 95.98 4.84L95.98 4.84L95.98 4.84Q94.87 5.99 94.88 7.62L94.88 7.62L94.88 7.62Q94.88 9.35 96.09 10.69L96.09 10.69L96.09 10.69Q97.30 12.02 99.11 12.02L99.11 12.02L99.11 12.02Q100.12 12.02 101.06 11.49L101.06 11.49L101.06 11.49Q102.01 10.94 102.04 10.58L102.04 10.58L102.08 9.41L102.57 9.41L102.49 11.45L102.49 11.45Q102.42 11.49 102.29 11.57L102.29 11.57L102.29 11.57Q102.24 11.60 101.77 11.85L101.77 11.85L101.77 11.85Q101.40 12.05 100.95 12.23L100.95 12.23L100.95 12.23Q100.59 12.39 99.94 12.51L99.94 12.51L99.94 12.51Q99.33 12.63 98.77 12.64L98.77 12.64L98.77 12.64Q96.39 12.64 95.03 11.39L95.03 11.39L95.03 11.39Q93.69 10.14 93.69 8.02ZM110.99 7.83L110.99 7.83L110.99 7.83Q110.99 6.62 111.39 5.68L111.39 5.68L111.39 5.68Q111.81 4.72 112.50 4.12L112.50 4.12L112.50 4.12Q113.19 3.51 114.05 3.19L114.05 3.19L114.05 3.19Q114.89 2.88 115.84 2.88L115.84 2.88L115.84 2.88Q117.10 2.88 118.15 3.40L118.15 3.40L118.15 3.40Q119.23 3.93 119.94 5.07L119.94 5.07L119.94 5.07Q120.64 6.17 120.65 7.75L120.65 7.75L120.65 7.75Q120.65 8.70 120.34 9.54L120.34 9.54L120.34 9.54Q120.03 10.38 119.43 11.10L119.43 11.10L119.43 11.10Q118.82 11.81 117.89 12.22L117.89 12.22L117.89 12.22Q116.92 12.63 115.73 12.64L115.73 12.64L115.73 12.64Q114.60 12.64 113.66 12.23L113.66 12.23L113.66 12.23Q112.72 11.83 112.16 11.14L112.16 11.14L112.16 11.14Q111.59 10.45 111.30 9.60L111.30 9.60L111.30 9.60Q110.99 8.72 110.99 7.83ZM112.25 7.38L112.25 7.38L112.25 7.38Q112.25 8.52 112.68 9.60L112.68 9.60L112.68 9.60Q113.08 10.64 114.01 11.33L114.01 11.33L114.01 11.33Q114.92 12.03 116.11 12.04L116.11 12.04L116.11 12.04Q117.48 12.04 118.42 11.01L118.42 11.01L118.42 11.01Q119.37 9.97 119.37 8.10L119.37 8.10L119.37 8.10Q119.37 5.99 118.21 4.72L118.21 4.72L118.21 4.72Q117.06 3.46 115.55 3.45L115.55 3.45L115.55 3.45Q115.03 3.45 114.48 3.65L114.48 3.65L114.48 3.65Q113.94 3.85 113.44 4.25L113.44 4.25L113.44 4.25Q112.89 4.68 112.57 5.48L112.57 5.48L112.57 5.48Q112.25 6.27 112.25 7.38ZM129.25 3.64L128.76 3.64L128.78 3.08L132.36 3.08L132.36 3.64L131.73 3.64L131.73 3.64Q131.35 3.64 131.24 3.72L131.24 3.72L131.24 3.72Q131.13 3.80 131.13 4.16L131.13 4.16L131.13 11.22L131.13 11.22Q131.13 11.57 131.21 11.67L131.21 11.67L131.21 11.67Q131.30 11.77 131.59 11.77L131.59 11.77L131.59 11.77Q134.46 11.74 135.12 11.63L135.12 11.63L135.12 11.63Q135.33 11.61 135.41 11.39L135.41 11.39L135.41 11.39Q135.50 11.17 135.69 10.05L135.69 10.05L136.19 10.08L135.72 12.41L128.96 12.41L128.95 11.87L129.34 11.87L129.34 11.87Q129.84 11.87 129.91 11.80L129.91 11.80L129.91 11.80Q129.99 11.72 130.00 11.33L130.00 11.33L130.00 4.09L130.00 4.09Q130.00 3.80 129.84 3.72L129.84 3.72L129.84 3.72Q129.69 3.64 129.25 3.64L129.25 3.64ZM144.20 5.35L143.70 5.33L143.70 5.33Q143.82 4.17 143.90 3.08L143.90 3.08L151.98 3.08L151.98 3.08Q151.90 4.13 151.87 4.53L151.87 4.53L151.87 4.53Q151.83 5.26 151.81 5.32L151.81 5.32L151.31 5.30L151.31 5.30Q151.40 4.34 151.40 4.16L151.40 4.16L151.40 4.16Q151.40 3.88 151.25 3.79L151.25 3.79L151.25 3.79Q151.08 3.69 150.68 3.69L150.68 3.69L149.07 3.69L149.07 3.69Q148.57 3.69 148.44 3.79L148.44 3.79L148.44 3.79Q148.35 3.87 148.34 4.36L148.34 4.36L148.34 11.22L148.34 11.22Q148.34 11.66 148.48 11.76L148.48 11.76L148.48 11.76Q148.64 11.87 149.15 11.87L149.15 11.87L149.71 11.87L149.73 12.41L146.04 12.40L146.04 11.87L146.25 11.87L146.25 11.87Q146.92 11.87 147.07 11.79L147.07 11.79L147.07 11.79Q147.21 11.70 147.21 11.28L147.21 11.28L147.21 4.48L147.21 4.48Q147.21 3.92 147.11 3.80L147.11 3.80L147.11 3.80Q147.01 3.69 146.59 3.69L146.59 3.69L145.12 3.69L145.12 3.69Q144.94 3.69 144.87 3.71L144.87 3.71L144.87 3.71Q144.80 3.72 144.69 3.72L144.69 3.72L144.69 3.72Q144.66 3.72 144.55 3.79L144.55 3.79L144.55 3.79Q144.46 3.84 144.44 3.86L144.44 3.86L144.44 3.86Q144.41 3.88 144.37 3.99L144.37 3.99L144.37 3.99Q144.34 4.05 144.31 4.14L144.31 4.14L144.31 4.14Q144.29 4.21 144.27 4.36L144.27 4.36L144.27 4.36Q144.24 4.59 144.24 4.61L144.24 4.61L144.24 4.61Q144.24 4.80 144.22 4.95L144.22 4.95L144.22 4.95Q144.22 5.02 144.22 5.15L144.22 5.15L144.22 5.15Q144.21 5.29 144.20 5.35L144.20 5.35ZM159.74 3.64L159.72 3.08L166.93 3.08L166.93 3.08Q166.95 4.14 167.00 5.28L167.00 5.28L166.46 5.30L166.46 5.30Q166.44 4.66 166.39 4.25L166.39 4.25L166.39 4.25Q166.35 3.89 166.29 3.80L166.29 3.80L166.29 3.80Q166.24 3.71 166.12 3.69L166.12 3.69L166.12 3.69Q166.02 3.68 165.44 3.68L165.44 3.68L163.06 3.68L163.06 3.68Q162.51 3.68 162.37 3.77L162.37 3.77L162.37 3.77Q162.24 3.86 162.24 4.33L162.24 4.33L162.24 6.28L162.24 6.28Q162.24 6.69 162.30 6.76L162.30 6.76L162.30 6.76Q162.37 6.84 162.71 6.84L162.71 6.84L164.82 6.84L164.82 6.84Q165.18 6.84 165.27 6.73L165.27 6.73L165.27 6.73Q165.35 6.63 165.35 6.14L165.35 6.14L165.35 5.61L165.87 5.63L165.87 8.97L165.35 8.97L165.35 8.24L165.35 8.24Q165.35 7.66 165.28 7.57L165.28 7.57L165.28 7.57Q165.20 7.46 164.85 7.46L164.85 7.46L162.75 7.46L162.75 7.46Q162.42 7.46 162.33 7.54L162.33 7.54L162.33 7.54Q162.24 7.63 162.24 7.89L162.24 7.89L162.24 11.20L162.24 11.20Q162.24 11.57 162.33 11.67L162.33 11.67L162.33 11.67Q162.42 11.77 162.69 11.77L162.69 11.77L162.69 11.77Q165.61 11.75 166.13 11.69L166.13 11.69L166.13 11.69Q166.65 11.63 166.74 11.38L166.74 11.38L166.74 11.36L166.75 11.35L166.97 10.17L167.45 10.25L167.10 12.41L160.00 12.41L160.00 11.87L160.37 11.87L160.37 11.87Q160.93 11.87 161.01 11.80L161.01 11.80L161.01 11.80Q161.11 11.72 161.11 11.33L161.11 11.33L161.11 4.24L161.11 4.24Q161.11 3.82 160.96 3.73L160.96 3.73L160.96 3.73Q160.79 3.64 160.13 3.64L160.13 3.64L159.74 3.64ZM175.34 3.64L175.33 3.08L177.50 3.08L183.24 10.48L183.24 4.14L183.24 4.14Q183.24 3.81 183.08 3.72L183.08 3.72L183.08 3.72Q182.93 3.64 182.47 3.64L182.47 3.64L181.98 3.64L182.01 3.08L184.99 3.08L184.99 3.64L184.67 3.64L184.67 3.64Q184.20 3.64 184.05 3.75L184.05 3.75L184.05 3.75Q183.90 3.86 183.90 4.25L183.90 4.25L183.90 12.32L183.90 12.47L183.90 12.47Q183.90 12.52 183.89 12.57L183.89 12.57L183.89 12.57Q183.87 12.61 183.84 12.64L183.84 12.64L183.84 12.64Q183.83 12.65 183.77 12.65L183.77 12.65L183.58 12.65L183.52 12.65L183.49 12.65L183.46 12.64L183.46 12.64Q183.44 12.64 183.42 12.63L183.42 12.63L183.42 12.63Q183.41 12.61 183.41 12.60L183.41 12.60L183.41 12.60Q183.41 12.58 183.39 12.57L183.39 12.57L183.39 12.57Q183.37 12.54 183.34 12.50L183.34 12.50L183.34 12.50Q183.33 12.48 183.31 12.45L183.31 12.45L183.31 12.45Q183.29 12.41 183.27 12.40L183.27 12.40L177.17 4.56L177.24 11.22L177.24 11.22Q177.24 11.67 177.40 11.77L177.40 11.77L177.40 11.77Q177.56 11.87 178.27 11.87L178.27 11.87L178.51 11.87L178.51 12.41L175.57 12.41L175.57 11.87L175.99 11.87L175.99 11.87Q176.37 11.87 176.48 11.76L176.48 11.76L176.48 11.76Q176.57 11.66 176.58 11.25L176.58 11.25L176.58 3.80L176.44 3.64L175.34 3.64ZM193.31 3.64L192.73 3.64L192.74 3.08L196.25 3.08L196.25 3.64L196.02 3.64L196.02 3.64Q195.47 3.64 195.30 3.73L195.30 3.73L195.30 3.73Q195.17 3.81 195.17 4.28L195.17 4.28L195.17 11.22L195.17 11.22Q195.17 11.68 195.28 11.77L195.28 11.77L195.28 11.77Q195.38 11.87 195.92 11.87L195.92 11.87L196.46 11.87L196.48 12.41L192.90 12.41L192.88 11.87L193.25 11.87L193.25 11.87Q193.81 11.87 193.92 11.77L193.92 11.77L193.92 11.77Q194.03 11.67 194.03 11.25L194.03 11.25L194.03 4.14L194.03 4.14Q194.03 3.77 193.93 3.71L193.93 3.71L193.93 3.71Q193.82 3.64 193.31 3.64L193.31 3.64ZM204.23 12.41L204.22 11.87L204.39 11.87L204.39 11.87Q204.78 11.87 204.91 11.73L204.91 11.73L204.91 11.73Q205.03 11.57 205.37 10.83L205.37 10.83L206.27 8.82L206.85 7.53L206.85 7.53Q207.12 6.97 207.16 6.86L207.16 6.86L207.16 6.86Q207.22 6.70 207.28 6.60L207.28 6.60L207.28 6.60Q207.33 6.51 207.34 6.45L207.34 6.45L207.44 6.21L208.87 2.74L209.16 2.74L209.16 2.74Q210.01 4.98 212.20 10.25L212.20 10.25L212.20 10.25Q212.65 11.34 212.84 11.64L212.84 11.64L212.84 11.64Q212.98 11.87 213.42 11.87L213.42 11.87L213.63 11.87L213.62 12.41L210.42 12.41L210.44 11.87L210.85 11.87L210.85 11.87Q211.47 11.87 211.47 11.70L211.47 11.70L211.47 11.70Q211.47 11.63 211.33 11.27L211.33 11.27L210.29 8.72L207.05 8.72L205.94 11.18L205.94 11.18Q205.80 11.50 205.80 11.63L205.80 11.63L205.80 11.63Q205.80 11.79 205.90 11.83L205.90 11.83L205.90 11.83Q205.99 11.87 206.38 11.87L206.38 11.87L206.95 11.87L206.95 12.41L204.23 12.41ZM208.73 4.79L207.31 8.10L210.05 8.10L208.73 4.79ZM231.42 3.64L230.93 3.64L230.93 3.08L234.45 3.08L234.43 3.64L233.69 3.64L233.69 3.64Q233.36 3.64 233.36 3.82L233.36 3.82L233.36 3.82Q233.36 3.98 233.55 4.48L233.55 4.48L236.15 10.94L239.09 4.18L239.09 4.18Q239.16 3.97 239.17 3.92L239.17 3.92L239.17 3.92Q239.17 3.79 239.07 3.74L239.07 3.74L239.07 3.74Q238.97 3.68 238.83 3.65L238.83 3.65L238.83 3.65Q238.75 3.64 238.48 3.64L238.48 3.64L238.03 3.64L238.01 3.08L240.84 3.08L240.82 3.64L240.41 3.64L240.41 3.64Q240.09 3.64 239.93 3.83L239.93 3.83L239.93 3.83Q239.85 3.93 239.39 4.94L239.39 4.94L239.39 4.94Q239.18 5.46 239.11 5.57L239.11 5.57L235.98 12.63L235.74 12.63L232.49 4.73L232.49 4.73Q232.17 3.93 232.03 3.79L232.03 3.79L232.03 3.79Q231.87 3.63 231.42 3.64L231.42 3.64ZM248.60 12.41L248.58 11.87L248.75 11.87L248.75 11.87Q249.14 11.87 249.27 11.73L249.27 11.73L249.27 11.73Q249.40 11.57 249.73 10.83L249.73 10.83L250.64 8.82L251.21 7.53L251.21 7.53Q251.48 6.97 251.52 6.86L251.52 6.86L251.52 6.86Q251.59 6.70 251.64 6.60L251.64 6.60L251.64 6.60Q251.69 6.51 251.71 6.45L251.71 6.45L251.80 6.21L253.23 2.74L253.52 2.74L253.52 2.74Q254.38 4.98 256.57 10.25L256.57 10.25L256.57 10.25Q257.02 11.34 257.21 11.64L257.21 11.64L257.21 11.64Q257.35 11.87 257.78 11.87L257.78 11.87L258.00 11.87L257.98 12.41L254.79 12.41L254.80 11.87L255.22 11.87L255.22 11.87Q255.83 11.87 255.83 11.70L255.83 11.70L255.83 11.70Q255.83 11.63 255.70 11.27L255.70 11.27L254.66 8.72L251.41 8.72L250.30 11.18L250.30 11.18Q250.17 11.50 250.17 11.63L250.17 11.63L250.17 11.63Q250.17 11.79 250.26 11.83L250.26 11.83L250.26 11.83Q250.36 11.87 250.74 11.87L250.74 11.87L251.32 11.87L251.32 12.41L248.60 12.41ZM253.09 4.79L251.68 8.10L254.42 8.10L253.09 4.79ZM266.22 3.64L265.73 3.64L265.74 3.08L269.33 3.08L269.33 3.64L268.69 3.64L268.69 3.64Q268.32 3.64 268.20 3.72L268.20 3.72L268.20 3.72Q268.09 3.80 268.09 4.16L268.09 4.16L268.09 11.22L268.09 11.22Q268.09 11.57 268.18 11.67L268.18 11.67L268.18 11.67Q268.26 11.77 268.56 11.77L268.56 11.77L268.56 11.77Q271.43 11.74 272.08 11.63L272.08 11.63L272.08 11.63Q272.30 11.61 272.38 11.39L272.38 11.39L272.38 11.39Q272.46 11.17 272.66 10.05L272.66 10.05L273.15 10.08L272.69 12.41L265.92 12.41L265.91 11.87L266.30 11.87L266.30 11.87Q266.81 11.87 266.88 11.80L266.88 11.80L266.88 11.80Q266.96 11.72 266.96 11.33L266.96 11.33L266.96 4.09L266.96 4.09Q266.96 3.80 266.81 3.72L266.81 3.72L266.81 3.72Q266.66 3.64 266.22 3.64L266.22 3.64ZM281.37 3.64L280.88 3.64L280.90 3.08L284.48 3.08L284.48 3.64L283.85 3.64L283.85 3.64Q283.47 3.64 283.36 3.72L283.36 3.72L283.36 3.72Q283.25 3.80 283.25 4.16L283.25 4.16L283.25 11.22L283.25 11.22Q283.25 11.57 283.33 11.67L283.33 11.67L283.33 11.67Q283.42 11.77 283.71 11.77L283.71 11.77L283.71 11.77Q286.58 11.74 287.24 11.63L287.24 11.63L287.24 11.63Q287.45 11.61 287.53 11.39L287.53 11.39L287.53 11.39Q287.62 11.17 287.81 10.05L287.81 10.05L288.31 10.08L287.84 12.41L281.08 12.41L281.07 11.87L281.46 11.87L281.46 11.87Q281.96 11.87 282.03 11.80L282.03 11.80L282.03 11.80Q282.11 11.72 282.12 11.33L282.12 11.33L282.12 4.09L282.12 4.09Q282.12 3.80 281.96 3.72L281.96 3.72L281.96 3.72Q281.81 3.64 281.37 3.64L281.37 3.64ZM296.05 3.64L296.04 3.08L303.25 3.08L303.25 3.08Q303.26 4.14 303.32 5.28L303.32 5.28L302.77 5.30L302.77 5.30Q302.76 4.66 302.70 4.25L302.70 4.25L302.70 4.25Q302.66 3.89 302.61 3.80L302.61 3.80L302.61 3.80Q302.55 3.71 302.44 3.69L302.44 3.69L302.44 3.69Q302.34 3.68 301.75 3.68L301.75 3.68L299.37 3.68L299.37 3.68Q298.83 3.68 298.68 3.77L298.68 3.77L298.68 3.77Q298.56 3.86 298.56 4.33L298.56 4.33L298.56 6.28L298.56 6.28Q298.56 6.69 298.61 6.76L298.61 6.76L298.61 6.76Q298.68 6.84 299.02 6.84L299.02 6.84L301.14 6.84L301.14 6.84Q301.50 6.84 301.58 6.73L301.58 6.73L301.58 6.73Q301.66 6.63 301.67 6.14L301.67 6.14L301.67 5.61L302.18 5.63L302.18 8.97L301.67 8.97L301.67 8.24L301.67 8.24Q301.67 7.66 301.59 7.57L301.59 7.57L301.59 7.57Q301.51 7.46 301.16 7.46L301.16 7.46L299.07 7.46L299.07 7.46Q298.73 7.46 298.65 7.54L298.65 7.54L298.65 7.54Q298.56 7.63 298.56 7.89L298.56 7.89L298.56 11.20L298.56 11.20Q298.56 11.57 298.65 11.67L298.65 11.67L298.65 11.67Q298.73 11.77 299.00 11.77L299.00 11.77L299.00 11.77Q301.92 11.75 302.45 11.69L302.45 11.69L302.45 11.69Q302.97 11.63 303.05 11.38L303.05 11.38L303.06 11.36L303.06 11.35L303.29 10.17L303.77 10.25L303.42 12.41L296.32 12.41L296.32 11.87L296.69 11.87L296.69 11.87Q297.25 11.87 297.33 11.80L297.33 11.80L297.33 11.80Q297.42 11.72 297.42 11.33L297.42 11.33L297.42 4.24L297.42 4.24Q297.42 3.82 297.27 3.73L297.27 3.73L297.27 3.73Q297.10 3.64 296.45 3.64L296.45 3.64L296.05 3.64ZM311.79 3.64L311.79 3.64L311.80 3.08L314.94 3.08L314.94 3.64L314.66 3.64L314.66 3.64Q314.21 3.64 314.10 3.66L314.10 3.66L314.10 3.66Q313.93 3.71 313.93 3.82L313.93 3.82L313.93 3.82Q313.93 3.89 314.18 4.31L314.18 4.31L316.18 7.46L318.63 3.99L318.63 3.99Q318.71 3.83 318.72 3.82L318.72 3.82L318.72 3.82Q318.72 3.64 317.80 3.64L317.80 3.64L317.58 3.64L317.57 3.08L320.11 3.08L320.11 3.64L320.04 3.64L320.04 3.64Q319.70 3.64 319.55 3.72L319.55 3.72L319.55 3.72Q319.40 3.80 319.11 4.22L319.11 4.22L316.38 8.17L316.38 11.22L316.38 11.22Q316.38 11.66 316.49 11.77L316.49 11.77L316.49 11.77Q316.59 11.87 317.20 11.87L317.20 11.87L317.84 11.87L317.82 12.41L313.89 12.41L313.90 11.87L314.46 11.87L314.46 11.87Q314.99 11.87 315.12 11.79L315.12 11.79L315.12 11.79Q315.25 11.70 315.25 11.25L315.25 11.25L315.25 8.06L312.95 4.49L312.95 4.49Q312.53 3.84 312.40 3.73L312.40 3.73L312.40 3.73Q312.29 3.64 311.79 3.64Z"></path></g></svg>